<svg width="111" height="65" viewBox="0 0 111 65" fill="none" xmlns="http://www.w3.org/2000/svg">
<path d="M72.8327 0H87.0282L111 48.9476H97.7418L93.2555 39.4393H67.0072L62.5209 48.9476H48.8611L72.8327 0ZM71.6944 29.4623H88.5013L80.0644 11.651L71.6944 29.4623Z" fill="white"/>
<path d="M37.9782 48.9476H23.7827L0.0119629 0H14.4083L30.8135 35.7565L47.5535 0H62.1507L37.9782 48.9476Z" fill="white"/>
<path d="M25.1381 59.3333C25.1381 59.6824 25.086 59.9703 24.9819 60.197C24.8778 60.4175 24.7369 60.5951 24.5592 60.7299C24.7736 60.8524 24.9451 61.0362 25.0738 61.2812C25.2024 61.5201 25.2667 61.8417 25.2667 62.246C25.2667 62.6503 25.2024 62.978 25.0738 63.2291C24.9451 63.4803 24.7644 63.6794 24.5317 63.8264C24.305 63.9673 24.0294 64.0653 23.7047 64.1204C23.3862 64.1694 23.037 64.1939 22.6572 64.1939H18.449V57.4772H22.6572C23.0125 57.4772 23.3402 57.5017 23.6404 57.5507C23.9467 57.5997 24.2101 57.6947 24.4306 57.8356C24.6511 57.9703 24.8226 58.1602 24.9451 58.4053C25.0738 58.6442 25.1381 58.9535 25.1381 59.3333ZM20.204 61.3272V62.7422H22.7032C22.8134 62.7422 22.9176 62.733 23.0156 62.7146C23.1136 62.6901 23.1963 62.6503 23.2637 62.5951C23.3372 62.54 23.3923 62.4665 23.4291 62.3746C23.4719 62.2827 23.4934 62.1664 23.4934 62.0255C23.4934 61.7498 23.4229 61.566 23.2821 61.4742C23.1473 61.3762 22.9635 61.3272 22.7308 61.3272H20.204ZM20.204 60.2062H22.694C22.939 60.2062 23.1228 60.1572 23.2453 60.0592C23.3739 59.955 23.4383 59.7835 23.4383 59.5446C23.4383 59.2751 23.3647 59.0944 23.2177 59.0025C23.0707 58.9045 22.89 58.8555 22.6756 58.8555H20.204V60.2062Z" fill="white"/>
<path d="M29.1507 58.8371C28.7648 58.8371 28.4524 58.8708 28.2135 58.9382C27.9807 59.0056 27.8 59.1189 27.6714 59.2781C27.5427 59.4313 27.457 59.6365 27.4141 59.8938C27.3712 60.151 27.3498 60.4665 27.3498 60.8402C27.3498 61.2138 27.3712 61.5293 27.4141 61.7866C27.457 62.0438 27.5427 62.2521 27.6714 62.4114C27.8 62.5645 27.9807 62.6748 28.2135 62.7422C28.4524 62.8095 28.7648 62.8432 29.1507 62.8432C29.5366 62.8432 29.8459 62.8095 30.0787 62.7422C30.3176 62.6748 30.5014 62.5645 30.63 62.4114C30.7586 62.2521 30.8444 62.0438 30.8873 61.7866C30.9302 61.5293 30.9516 61.2138 30.9516 60.8402C30.9516 60.4665 30.9302 60.151 30.8873 59.8938C30.8444 59.6365 30.7586 59.4313 30.63 59.2781C30.5014 59.1189 30.3176 59.0056 30.0787 58.9382C29.8459 58.8708 29.5366 58.8371 29.1507 58.8371ZM29.1507 64.3317C28.4095 64.3317 27.8061 64.2705 27.3406 64.148C26.875 64.0193 26.5106 63.8172 26.2472 63.5415C25.9899 63.2598 25.8122 62.8984 25.7142 62.4573C25.6224 62.0163 25.5764 61.4772 25.5764 60.8402C25.5764 60.2092 25.6224 59.6732 25.7142 59.2322C25.8122 58.785 25.9899 58.4236 26.2472 58.148C26.5106 57.8662 26.875 57.6641 27.3406 57.5415C27.8061 57.4129 28.4095 57.3486 29.1507 57.3486C29.8919 57.3486 30.4952 57.4129 30.9608 57.5415C31.4263 57.6641 31.7877 57.8662 32.045 58.148C32.3084 58.4236 32.4861 58.785 32.5779 59.2322C32.676 59.6732 32.725 60.2092 32.725 60.8402C32.725 61.4772 32.676 62.0163 32.5779 62.4573C32.4861 62.8984 32.3084 63.2598 32.045 63.5415C31.7877 63.8172 31.4263 64.0193 30.9608 64.148C30.4952 64.2705 29.8919 64.3317 29.1507 64.3317Z" fill="white"/>
<path d="M34.9992 62.2276L38.3254 57.4772H40.1355V64.1939H38.4724V59.5722L35.137 64.1939H33.3269V57.4772H34.9992V62.2276ZM36.7266 57.1097C36.3407 57.1097 36.0191 57.0821 35.7619 57.027C35.5107 56.9657 35.3086 56.8708 35.1554 56.7422C35.0023 56.6074 34.8951 56.4359 34.8338 56.2276C34.7726 56.0193 34.7419 55.7682 34.7419 55.4742V55.3639H35.6516V55.4742C35.6516 55.6212 35.6669 55.7468 35.6975 55.8509C35.7282 55.955 35.7833 56.0408 35.8629 56.1082C35.9487 56.1694 36.0589 56.2154 36.1937 56.246C36.3346 56.2705 36.5122 56.2827 36.7266 56.2827C36.941 56.2827 37.1187 56.2705 37.2596 56.246C37.4004 56.2154 37.5107 56.1694 37.5903 56.1082C37.67 56.0408 37.7251 55.955 37.7557 55.8509C37.7864 55.7468 37.8017 55.6212 37.8017 55.4742V55.3639H38.7205V55.4742C38.7205 55.7682 38.6868 56.0193 38.6194 56.2276C38.5582 56.4359 38.451 56.6074 38.2978 56.7422C38.1508 56.8708 37.9487 56.9657 37.6914 57.027C37.4341 57.0821 37.1125 57.1097 36.7266 57.1097Z" fill="white"/>
<path d="M46.8518 64.1939H43.7185C43.2224 64.1939 42.7875 64.151 42.4138 64.0653C42.0401 63.9734 41.7277 63.8049 41.4766 63.5599C41.2316 63.3149 41.0478 62.9749 40.9253 62.54C40.8028 62.1051 40.7415 61.5385 40.7415 60.8402C40.7415 60.1419 40.8028 59.5752 40.9253 59.1403C41.0478 58.7054 41.2316 58.3654 41.4766 58.1204C41.7277 57.8693 42.0401 57.7008 42.4138 57.6151C42.7875 57.5232 43.2224 57.4772 43.7185 57.4772H46.8518V58.9566H43.7277C43.5011 58.9566 43.3112 58.9841 43.1581 59.0393C43.0049 59.0883 42.8793 59.1832 42.7813 59.3241C42.6894 59.465 42.6221 59.6579 42.5792 59.903C42.5363 60.148 42.5149 60.4604 42.5149 60.8402C42.5149 61.22 42.5363 61.5324 42.5792 61.7774C42.6221 62.0224 42.6894 62.2154 42.7813 62.3562C42.8793 62.491 43.0049 62.586 43.1581 62.6411C43.3173 62.6901 43.5072 62.7146 43.7277 62.7146H46.8518V64.1939Z" fill="white"/>
<path d="M52.8728 57.4772H54.8207L58.1102 64.1939H56.2909L55.6753 62.8892H52.0734L51.4578 64.1939H49.5834L52.8728 57.4772ZM52.7166 61.5201H55.0229L53.8651 59.076L52.7166 61.5201Z" fill="white"/>
<path d="M65.2614 57.4772V64.1939H63.4604V61.5752H60.2537V64.1939H58.4528V57.4772H60.2537V60.0959H63.4604V57.4772H65.2614Z" fill="white"/>
<path d="M68.8903 57.4772H70.8383L74.1277 64.1939H72.3084L71.6928 62.8892H68.091L67.4753 64.1939H65.6009L68.8903 57.4772ZM68.7341 61.5201H71.0404L69.8827 59.076L68.7341 61.5201Z" fill="white"/>
<path d="M81.3763 57.4772V64.1939H79.5754V58.929H77.6091L77.3702 61.3455C77.3151 61.8846 77.2232 62.3379 77.0945 62.7054C76.972 63.0668 76.8128 63.3578 76.6167 63.5783C76.4207 63.7988 76.1849 63.9581 75.9092 64.0561C75.6336 64.148 75.3212 64.1939 74.972 64.1939H74.1543V62.7422H74.7056C74.8587 62.7422 74.9965 62.7238 75.119 62.687C75.2416 62.6441 75.3457 62.5676 75.4314 62.4573C75.5233 62.3409 75.5999 62.1786 75.6612 61.9703C75.7224 61.7559 75.7683 61.4772 75.799 61.1342L76.1665 57.4772H81.3763Z" fill="white"/>
<path d="M83.9405 62.2276L87.2667 57.4772H89.0768V64.1939H87.4137V59.5722L84.0783 64.1939H82.2682V57.4772H83.9405V62.2276Z" fill="white"/>
<path d="M91.8696 58.929H89.4898V57.4772H96.0503V58.929H93.6706V64.1939H91.8696V58.929Z" fill="white"/>
<path d="M98.1276 62.2276L101.454 57.4772H103.264V64.1939H101.601V59.5722L98.2654 64.1939H96.4553V57.4772H98.1276V62.2276Z" fill="white"/>
<path d="M108.666 60.7115L111 64.1939H108.997L107.104 61.4558H105.946V64.1939H104.146V57.4772H105.946V60.197H107.104L109.025 57.4772H110.927L108.666 60.7115Z" fill="white"/>
</svg>
